<?xml version="1.0" encoding="UTF-8" standalone="no"?>
<svg
   xmlns:dc="http://purl.org/dc/elements/1.1/"
   xmlns:cc="http://creativecommons.org/ns#"
   xmlns:rdf="http://www.w3.org/1999/02/22-rdf-syntax-ns#"
   xmlns:svg="http://www.w3.org/2000/svg"
   xmlns="http://www.w3.org/2000/svg"
   xmlns:sodipodi="http://sodipodi.sourceforge.net/DTD/sodipodi-0.dtd"
   xmlns:inkscape="http://www.inkscape.org/namespaces/inkscape"
   width="210mm"
   height="210mm"
   viewBox="0 0 210 210"
   version="1.1"
   id="svg8"
   sodipodi:docname="logo_b.svg"
   inkscape:version="1.0 (4035a4fb49, 2020-05-01)">
  <defs
     id="defs2" />
  <sodipodi:namedview
     id="base"
     pagecolor="#ffffff"
     bordercolor="#666666"
     borderopacity="1.0"
     inkscape:pageopacity="0.0"
     inkscape:pageshadow="2"
     inkscape:zoom="0.35355339"
     inkscape:cx="391.62345"
     inkscape:cy="444.07281"
     inkscape:document-units="mm"
     inkscape:current-layer="layer1"
     showgrid="false"
     inkscape:snap-global="false"
     inkscape:snap-bbox="true"
     inkscape:bbox-paths="true"
     inkscape:bbox-nodes="true"
     inkscape:snap-bbox-edge-midpoints="true"
     inkscape:snap-bbox-midpoints="true"
     inkscape:snap-intersection-paths="true"
     inkscape:object-paths="true"
     inkscape:snap-midpoints="true"
     inkscape:snap-smooth-nodes="true"
     inkscape:snap-object-midpoints="true"
     inkscape:snap-center="true"
     inkscape:snap-text-baseline="true"
     inkscape:snap-page="true"
     inkscape:window-width="1600"
     inkscape:window-height="837"
     inkscape:window-x="-8"
     inkscape:window-y="-8"
     inkscape:window-maximized="1"
     inkscape:document-rotation="0" />
  <metadata
     id="metadata5">
    <rdf:RDF>
      <cc:Work
         rdf:about="">
        <dc:format>image/svg+xml</dc:format>
        <dc:type
           rdf:resource="http://purl.org/dc/dcmitype/StillImage" />
        <dc:title></dc:title>
      </cc:Work>
    </rdf:RDF>
  </metadata>
  <g
     inkscape:label="Layer 1"
     inkscape:groupmode="layer"
     id="layer1">
    <g
       transform="matrix(3.8378807,0,0,3.8378807,-237.42029,-687.86952)"
       id="g871">
      <rect
         inkscape:export-ydpi="944.3222"
         inkscape:export-xdpi="944.3222"
         inkscape:export-filename="C:\Users\aditya\Desktop\KWAD\logo_a.png"
         ry="0.037769038"
         y="180.02711"
         x="62.657852"
         height="53.126678"
         width="53.126678"
         id="rect4840"
         style="fill:#ffffff;fill-rule:evenodd;stroke:#000000;stroke-width:0.668519;stroke-linecap:butt;stroke-linejoin:miter;stroke-miterlimit:4;stroke-dasharray:none;stroke-opacity:1" />
      <path
         style="font-style:normal;font-variant:normal;font-weight:900;font-stretch:normal;font-size:35.2778px;line-height:125%;font-family:Montserrat;-inkscape-font-specification:'Montserrat Heavy';letter-spacing:0px;word-spacing:0px;fill:#000000;fill-opacity:1;stroke:none;stroke-width:0.119806px;stroke-linecap:butt;stroke-linejoin:miter;stroke-opacity:1"
         d="m 65.328509,200.99949 v 11.18193 h 3.70602 v -2.76349 l 0.8466,-0.94252 2.79531,3.70601 h 4.36097 l -4.69629,-6.26195 4.0067,-4.40753 3.41423,10.66948 h 4.04133 l 1.90098,-5.97436 1.80504,5.97436 h 3.38357 l 4.88817,-11.18193 h -0.65215 -3.57803 l -2.06079,6.43768 -1.94871,-6.43768 h -3.46641 l -2.0608,6.35766 -1.94871,-6.35766 h -3.25183 -0.62992 -3.4753 l -3.67396,4.05748 v -4.05748 z m 34.158654,0 4.887917,11.18193 h 2.42888 c 1.24597,0 2.34287,-0.22359 3.29067,-0.67086 0.95844,-0.45792 1.69856,-1.10765 2.22038,-1.94895 0.53247,-0.8413 0.79886,-1.83179 0.79886,-2.97128 0,-1.13948 -0.26639,-2.12973 -0.79886,-2.97103 -0.52182,-0.8413 -1.26194,-1.48553 -2.22038,-1.9328 -0.9478,-0.45793 -2.0447,-0.68701 -3.29067,-0.68701 h -5.51107 z m 5.575637,2.93921 h 1.58157 c 0.80936,0 1.45358,0.23435 1.9328,0.70293 0.48988,0.45792 0.73475,1.10741 0.73475,1.9487 0,0.8413 -0.24487,1.49629 -0.73475,1.96486 -0.47922,0.45793 -1.12344,0.68702 -1.9328,0.68702 h -1.58157 z m -7.460711,0.7668 -1.0862,2.81146 h 2.172414 z m -2.12445,5.52697 -0.75089,1.94895 h 5.750671 l -0.750657,-1.94895 z"
         id="path4848"
         inkscape:connector-curvature="0" />
    </g>
  </g>
</svg>
